<svg width="16" height="16" viewBox="0 0 16 16" fill="none" xmlns="http://www.w3.org/2000/svg">
<path d="M12.5789 6.7848C12.5789 4.13512 10.5263 2 8 2C5.47368 2 3.42105 4.15287 3.42105 6.7848C2.58365 7.11601 2 7.96178 2 8.95541V9.78344C2 11.058 2.9953 12.1019 4.21053 12.1019H4.36842C4.89004 12.1019 5.31579 11.6554 5.31579 11.1083V7.63057C5.31579 7.19882 5.04793 6.83508 4.68421 6.702C4.73214 4.83303 6.20113 3.32484 8 3.32484C9.79887 3.32484 11.2679 4.83303 11.3158 6.702C10.9521 6.83508 10.6842 7.19882 10.6842 7.63057V11.1083C10.6842 11.5726 11 11.9688 11.4117 12.0694C11.2368 12.2853 10.969 12.4331 10.6842 12.4331H10.0216C9.76786 11.7056 9.10526 11.1911 8.31579 11.1911C7.32049 11.1911 6.5 12.0516 6.5 13.0955C6.5 14.1394 7.32049 15 8.31579 15C9.08835 15 9.75376 14.4854 10.0216 13.758H10.6842C11.7895 13.758 12.6889 12.9122 12.8637 11.8032C13.5432 11.407 14 10.644 14 9.78344V8.95541C14 7.96178 13.4164 7.11601 12.5789 6.7848ZM4.05263 10.7593C3.60996 10.6765 3.26316 10.2803 3.26316 9.78344V8.95541C3.26316 8.4586 3.60996 8.06233 4.05263 7.97953V10.7593ZM8.31579 13.6752C8 13.6752 7.76316 13.409 7.76316 13.0955C7.76316 12.7821 8.01692 12.5159 8.31579 12.5159C8.61466 12.5159 8.86842 12.7821 8.86842 13.0955C8.86842 13.409 8.61466 13.6752 8.31579 13.6752ZM12.7368 9.78344C12.7368 10.2803 12.39 10.6765 11.9474 10.7593V7.96178C12.39 8.04459 12.7368 8.44086 12.7368 8.93767V9.78344Z" fill="#464646"/>
</svg>
