<svg width="16" height="16" viewBox="0 0 16 16" fill="none" xmlns="http://www.w3.org/2000/svg">
<path d="M11.1603 8.77094C10.8637 8.48329 10.448 8.48838 10.1515 8.77604C10.0178 8.90586 9.87919 9.03314 9.76737 9.18079C9.64582 9.33607 9.50726 9.36407 9.3371 9.31825C9.21069 9.28516 9.08914 9.24697 8.97246 9.18588C8.52517 8.95677 8.15324 8.63094 7.82993 8.23891C7.56739 7.91816 7.34618 7.57196 7.2538 7.15448C7.21491 6.98393 7.2222 6.8261 7.37292 6.69627C7.50662 6.58172 7.6233 6.44426 7.74485 6.31189C8.05357 5.97841 8.06086 5.53548 7.757 5.19691C7.5528 4.96781 7.33645 4.75143 7.12496 4.52996C6.73845 4.12775 6.34221 4.11757 5.94354 4.51214C5.72719 4.72852 5.52542 4.96017 5.31879 5.18673C5.03438 5.49984 4.89581 5.8715 4.90311 6.12606C4.91283 6.80573 5.03681 7.28176 5.24343 7.73234C5.85359 9.07133 6.77977 10.1252 7.95147 10.9449C8.54705 11.3624 9.18395 11.6831 9.90836 11.7671C10.3824 11.8206 10.8272 11.7366 11.1773 11.3726C11.418 11.1231 11.6586 10.8711 11.892 10.614C12.1715 10.3034 12.1837 9.86046 11.9066 9.54736C11.6683 9.28261 11.418 9.02296 11.1603 8.77094Z" fill="#464646"/>
<path d="M8.76124 1.51343C5.32113 1.51343 2.53283 4.41788 2.53283 8.0013C2.53283 9.09519 2.79407 10.1244 3.25189 11.0297L2.03104 13.1043C1.97931 13.1932 2.05432 13.301 2.15002 13.2794L4.50895 12.7406C5.62117 13.8237 7.11619 14.4892 8.76124 14.4892C12.2014 14.4892 14.9897 11.5847 14.9897 8.0013C14.9897 4.41788 12.1988 1.51343 8.76124 1.51343Z" stroke="#464646" stroke-width="1.5" stroke-miterlimit="10"/>
</svg>
